<svg xmlns="http://www.w3.org/2000/svg" xmlns:xlink="http://www.w3.org/1999/xlink" id="Grupo_2770" data-name="Grupo 2770" width="35.979" height="38.792" viewBox="0 0 35.979 38.792"><defs><clipPath id="clip-path"><rect id="Ret&#xE2;ngulo_1253" data-name="Ret&#xE2;ngulo 1253" width="35.979" height="38.644" fill="#0bd692"></rect></clipPath></defs><g id="Grupo_2769" data-name="Grupo 2769"><path id="Caminho_1321" data-name="Caminho 1321" d="M291.559,256.455a.568.568,0,0,0,.626-.5l.324-2.971A1.1,1.1,0,0,1,293.6,252h3.947v1.9a.568.568,0,1,0,1.136,0V252h9.768v1.9a.568.568,0,0,0,1.137,0V252h3.947a1.1,1.1,0,0,1,1.092.979l.779,7.141a.568.568,0,0,0,.564.507c.02,0,.041,0,.062,0a.568.568,0,0,0,.5-.626l-.779-7.141a2.232,2.232,0,0,0-2.222-1.993H309.59v-.844a6.02,6.02,0,1,0-12.041,0v.844H293.6a2.232,2.232,0,0,0-2.222,1.993l-.324,2.971a.568.568,0,0,0,.5.626Zm7.126-6.434a4.884,4.884,0,1,1,9.768,0v.844h-9.768Zm0,0" transform="translate(-288.872 -244)" fill="#0bd692"></path><g id="Grupo_2768" data-name="Grupo 2768" transform="translate(0 0.148)"><g id="Grupo_2767" data-name="Grupo 2767" transform="translate(0)" clip-path="url(#clip-path)"><path id="Caminho_1322" data-name="Caminho 1322" d="M651.208,513.978a1.784,1.784,0,1,0,2.524,0,1.787,1.787,0,0,0-2.524,0Zm1.72,1.72a.648.648,0,1,1,0-.916.649.649,0,0,1,0,.916Zm0,0" transform="translate(-621.264 -493.192)" fill="#0bd692"></path><path id="Caminho_1323" data-name="Caminho 1323" d="M300.438,436.391l-.265-6.529a2.357,2.357,0,0,0-2.247-2.247l-6.53-.265a2.35,2.35,0,0,0-1.752.685l-9.5,9.5a2.494,2.494,0,0,0-.731,1.724H266.174l1.687-15.466a.568.568,0,1,0-1.129-.123l-1.7,15.619a4.645,4.645,0,0,0,4.618,5.148h13.861l3.207,3.207a2.5,2.5,0,0,0,3.538,0l9.5-9.5a2.349,2.349,0,0,0,.685-1.752ZM269.645,443.3a3.508,3.508,0,0,1-3.456-2.905h13.471a2.485,2.485,0,0,0,.482.678l2.227,2.227Zm29.305-5.963-9.5,9.5a1.367,1.367,0,0,1-1.932,0l-6.57-6.57a1.368,1.368,0,0,1,0-1.932l9.5-9.5a1.211,1.211,0,0,1,.854-.354h.048l6.529.265a1.214,1.214,0,0,1,1.158,1.158l.265,6.529a1.211,1.211,0,0,1-.353.9Zm0,0" transform="translate(-264.793 -409.741)" fill="#0bd692"></path></g></g><path id="Caminho_1324" data-name="Caminho 1324" d="M546.685,558.608a1.974,1.974,0,1,0-1.974-1.974,1.976,1.976,0,0,0,1.974,1.974Zm0-2.811a.837.837,0,1,1-.837.837.838.838,0,0,1,.837-.837Zm0,0" transform="translate(-523.316 -531.127)" fill="#0bd692"></path><path id="Caminho_1325" data-name="Caminho 1325" d="M593.22,627.625a1.974,1.974,0,1,0,1.974,1.974,1.976,1.976,0,0,0-1.974-1.974Zm0,2.811a.837.837,0,1,1,.837-.837.838.838,0,0,1-.837.837Zm0,0" transform="translate(-566.325 -598.565)" fill="#0bd692"></path><path id="Caminho_1326" data-name="Caminho 1326" d="M555.055,571.622a.568.568,0,0,0-.8,0l-5.794,5.794a.568.568,0,1,0,.8.8l5.794-5.794a.568.568,0,0,0,0-.8Zm0,0" transform="translate(-526.625 -546.65)" fill="#0bd692"></path></g></svg>